<svg width="58" height="58" viewBox="0 0 58 58" fill="none" xmlns="http://www.w3.org/2000/svg">
<path d="M12.5731 8.13566L9.73195 0.743689C9.53543 0.232568 8.95062 -0.0398447 8.43253 0.137502C6.18582 0.906742 4.57111 2.37224 3.58838 4.53422C3.36175 5.03279 3.57641 5.64118 4.06614 5.88617L11.1489 9.42834C11.9911 9.84951 12.9109 9.01461 12.5731 8.13566Z" fill="#F8D448"/>
<path d="M45.4279 8.13567L48.2691 0.743812C48.4656 0.23269 49.0504 -0.0397226 49.5685 0.137624C51.8153 0.906864 53.43 2.37236 54.4127 4.53434C54.6394 5.03291 54.4248 5.64131 53.935 5.88629L46.8523 9.42847C46.0099 9.84952 45.0901 9.01462 45.4279 8.13567Z" fill="#F8D448"/>
<path d="M12.5722 49.8644L9.73109 57.2562C9.53456 57.7674 8.94976 58.0398 8.43167 57.8624C6.18485 57.0932 4.57013 55.6277 3.5874 53.4657C3.36078 52.9671 3.57543 52.3587 4.06517 52.1137L11.1479 48.5716C11.9902 48.1505 12.9101 48.9854 12.5722 49.8644Z" fill="#F8D448"/>
<path d="M45.4279 49.8644L48.2691 57.2562C48.4656 57.7674 49.0504 58.0398 49.5685 57.8624C51.8153 57.0932 53.43 55.6277 54.4127 53.4657C54.6394 52.9671 54.4248 52.3587 53.935 52.1137L46.8523 48.5716C46.0099 48.1505 45.0901 48.9854 45.4279 49.8644Z" fill="#F8D448"/>
<path d="M0.454918 30.7918C-0.172769 29.5694 -0.134534 28.31 0.468632 27.0191C0.63459 26.6639 1.06773 26.523 1.41778 26.6998L4.69323 28.354C5.22027 28.6201 5.20424 29.3782 4.6665 29.6219L1.3735 31.1143C1.03054 31.2696 0.626919 31.1266 0.454918 30.7918Z" fill="#FBE88C"/>
<path d="M57.5452 30.7918C58.1729 29.5694 58.1346 28.31 57.5316 27.0191C57.3656 26.6639 56.9325 26.523 56.5824 26.6998L53.307 28.354C52.7799 28.6201 52.796 29.3782 53.3337 29.6219L56.6267 31.1143C56.9697 31.2696 57.3733 31.1266 57.5452 30.7918Z" fill="#FBE88C"/>
<path d="M20.705 6.07633C20.325 6.07633 19.9757 5.82588 19.8669 5.44214L18.9295 2.13425C18.7983 1.67113 19.0673 1.1893 19.5304 1.05797C19.9937 0.926529 20.4755 1.1958 20.6067 1.65893L21.5441 4.96681C21.6753 5.42993 21.4063 5.91177 20.9432 6.04309C20.8637 6.06564 20.7837 6.07633 20.705 6.07633Z" fill="#FBE372"/>
<path d="M7.6826 15.3595C7.56371 15.3595 7.44296 15.3351 7.32732 15.2833L4.72755 14.1212C4.28814 13.9247 4.09103 13.4092 4.28755 12.9697C4.48408 12.5302 4.99927 12.3332 5.43903 12.5297L8.0388 13.6919C8.47822 13.8884 8.67532 14.4038 8.4788 14.8433C8.33411 15.1672 8.01591 15.3595 7.6826 15.3595Z" fill="#FBE372"/>
<path d="M4.91426 40.4431C4.63034 40.4431 4.35189 40.3046 4.18454 40.0493C3.92061 39.6467 4.03299 39.1064 4.43557 38.8425L6.81708 37.2811C7.21954 37.0171 7.75995 37.1295 8.02388 37.5321C8.28781 37.9348 8.17542 38.475 7.77285 38.7389L5.39133 40.3003C5.24409 40.397 5.07824 40.4431 4.91426 40.4431Z" fill="#FBE372"/>
<path d="M20.7048 55.6916C20.5645 55.6916 20.4222 55.6576 20.2902 55.5861C19.867 55.3566 19.7098 54.8277 19.9392 54.4045L21.2961 51.9008C21.5255 51.4776 22.0543 51.3204 22.4777 51.5498C22.9009 51.7793 23.058 52.3082 22.8286 52.7314L21.4718 55.2351C21.3141 55.5263 21.0144 55.6916 20.7048 55.6916Z" fill="#FBE372"/>
<path d="M37.2947 6.07628C37.216 6.07628 37.1361 6.06559 37.0566 6.04304C36.5935 5.91183 36.3243 5.43 36.4556 4.96676L37.393 1.65888C37.5242 1.19587 38.006 0.926596 38.4693 1.05792C38.9324 1.18913 39.2016 1.67096 39.0703 2.13421L38.1329 5.44209C38.0242 5.82583 37.6747 6.07628 37.2947 6.07628Z" fill="#FBE372"/>
<path d="M50.3174 15.3595C49.9842 15.3595 49.6661 15.1673 49.5212 14.8434C49.3248 14.4038 49.5216 13.8884 49.9612 13.6919L52.5609 12.5297C53.0001 12.3336 53.5159 12.5302 53.7123 12.9697C53.9087 13.4093 53.7118 13.9247 53.2723 14.1212L50.6725 15.2834C50.5571 15.3351 50.4364 15.3595 50.3174 15.3595Z" fill="#FBE372"/>
<path d="M53.0857 40.4431C52.9217 40.4431 52.756 40.397 52.6086 40.3003L50.2271 38.7389C49.8245 38.475 49.7121 37.9347 49.976 37.5321C50.2401 37.1295 50.7801 37.0172 51.183 37.2811L53.5645 38.8425C53.967 39.1064 54.0794 39.6467 53.8155 40.0493C53.648 40.3045 53.3697 40.4431 53.0857 40.4431Z" fill="#FBE372"/>
<path d="M37.2951 55.6916C36.9855 55.6916 36.6858 55.5263 36.528 55.2351L35.1712 52.7314C34.9417 52.3081 35.099 51.7791 35.5222 51.5498C35.9456 51.3203 36.4746 51.4775 36.7038 51.9009L38.0607 54.4046C38.2901 54.8278 38.1328 55.3569 37.7096 55.5862C37.5777 55.6576 37.4354 55.6916 37.2951 55.6916Z" fill="#FBE372"/>
<path d="M30.4969 6.91361L35.7546 17.5671C35.9734 18.0103 36.3963 18.3176 36.8854 18.3886L48.6423 20.097C49.8741 20.276 50.366 21.7898 49.4746 22.6587L40.9673 30.9512C40.6133 31.2963 40.4519 31.7933 40.5354 32.2805L42.5438 43.9898C42.7543 45.2166 41.4665 46.1523 40.3647 45.573L29.8492 40.0447C29.4116 39.8147 28.889 39.8147 28.4514 40.0447L17.9359 45.573C16.8342 46.1523 15.5465 45.2167 15.7568 43.9898L17.7652 32.2805C17.8487 31.7933 17.6872 31.2963 17.3333 30.9512L8.82602 22.6587C7.93464 21.7898 8.42658 20.276 9.65837 20.097L21.4151 18.3886C21.9043 18.3175 22.3272 18.0103 22.5459 17.5671L27.8037 6.91361C28.3543 5.79735 29.946 5.79735 30.4969 6.91361Z" fill="#FBE88C"/>
<path d="M42.5435 43.9898L42.2369 42.2022L30.3234 35.9388C29.809 35.6683 29.1946 35.6683 28.6802 35.9388L22.2773 39.305C21.6502 39.6347 20.9174 39.1022 21.0371 38.404L22.5377 29.6546C22.6212 29.1674 22.4597 28.6703 22.1057 28.3253L17.9533 24.2777C17.1748 23.5189 17.6044 22.1969 18.6801 22.0406L25.4582 21.0557C25.9474 20.9846 26.3703 20.6774 26.589 20.2342L31.8298 9.61519L30.4964 6.91361C29.9456 5.79735 28.3539 5.79735 27.803 6.91361L22.5452 17.5671C22.3264 18.0105 21.9036 18.3176 21.4144 18.3886L9.65758 20.097C8.4258 20.276 7.93397 21.7897 8.82524 22.6587L17.3325 30.9513C17.6865 31.2963 17.8481 31.7934 17.7645 32.2806L15.7563 43.9898C15.5458 45.2167 16.8336 46.1523 17.9355 45.573L28.451 40.0447C28.8886 39.8147 29.4112 39.8147 29.8487 40.0447L40.3644 45.5732C41.4661 46.1521 42.7538 45.2166 42.5435 43.9898Z" fill="#FBE372"/>
</svg>
