<svg width="54" height="54" viewBox="0 0 54 54" fill="none" xmlns="http://www.w3.org/2000/svg">
<path d="M27.3741 22.4327C20.4009 15.4605 12.7548 11.8016 10.2952 14.2603C10.0253 14.543 9.82668 14.8859 9.7158 15.2607L9.67621 15.2212L7.32723 24.8474L4.98814 34.4449L2.21542 45.8092L0.460205 53.0064L10.8521 49.0741L24.0697 44.0729L34.6145 40.083L34.6019 40.0704C34.9549 39.9578 35.2779 39.7669 35.5465 39.5117C38.0062 37.052 34.3473 29.4059 27.3741 22.4327Z" fill="#DD1C4B"/>
<path d="M27.3741 22.43C20.4012 15.457 12.7549 11.798 10.2956 14.2574C7.83623 16.7167 11.4952 24.363 18.4682 31.336C25.4411 38.3089 33.0874 41.9679 35.5467 39.5086C38.0061 37.0492 34.3471 29.4029 27.3741 22.43Z" fill="#D1E3EE"/>
<path d="M33.6573 40.3943C32.3982 40.4163 31.149 40.1685 29.9939 39.6674L21.3753 42.9286L8.15311 47.9252L1.06297 50.608L0.460205 53.0793L10.8521 49.147L24.0697 44.1458L33.7472 40.4842L33.6573 40.3943Z" fill="#B21D48"/>
<path d="M44.5433 33.2871C44.4355 33.2867 44.3287 33.2675 44.2275 33.2304C39.6603 31.5193 34.7234 31.0396 29.9123 31.8395L26.6987 32.3748C26.2068 32.445 25.7512 32.1031 25.681 31.6112C25.6132 31.136 25.9304 30.6912 26.4018 30.6007L29.6163 30.0609C34.7391 29.2097 39.9957 29.7202 44.859 31.5408C45.3266 31.7088 45.5694 32.2241 45.4014 32.6917C45.2716 33.0529 44.9271 33.292 44.5433 33.2871Z" fill="#FFBF41"/>
<path d="M28.3495 27.8891C27.8526 27.8862 27.4522 27.481 27.4551 26.9842C27.4571 26.6412 27.6539 26.3292 27.9626 26.1798L46.8552 17.1833C47.3039 16.9696 47.8408 17.1601 48.0545 17.6088C48.2681 18.0575 48.0776 18.5944 47.6289 18.8081L28.7363 27.8046C28.6153 27.8611 28.4832 27.89 28.3495 27.8891Z" fill="#FFBF41"/>
<path d="M17.829 26.0898C17.7103 26.0901 17.5928 26.0665 17.4835 26.0206C17.0249 25.8293 16.8082 25.3025 16.9995 24.8439V24.8438L18.3076 21.7049C20.3202 16.8957 20.7895 11.5802 19.6508 6.49277C19.534 6.00977 19.831 5.52373 20.3139 5.407C20.7969 5.29027 21.283 5.58727 21.3997 6.07016C21.4023 6.08084 21.4046 6.09152 21.4069 6.10232C22.6268 11.5521 22.1238 17.2462 19.9675 22.3977L18.6585 25.5365C18.5188 25.8713 18.1918 26.0895 17.829 26.0898Z" fill="#FFBF41"/>
<path d="M49.0412 36.8856C50.035 36.8856 50.8405 36.0801 50.8405 35.0863C50.8405 34.0926 50.035 33.287 49.0412 33.287C48.0475 33.287 47.2419 34.0926 47.2419 35.0863C47.2419 36.0801 48.0475 36.8856 49.0412 36.8856Z" fill="#D5557E"/>
<path d="M27.4497 11.6955C28.4434 11.6955 29.249 10.8899 29.249 9.89616C29.249 8.90244 28.4434 8.09686 27.4497 8.09686C26.456 8.09686 25.6504 8.90244 25.6504 9.89616C25.6504 10.8899 26.456 11.6955 27.4497 11.6955Z" fill="#DD95C1"/>
<path d="M19.353 3.5986C18.3592 3.5986 17.5537 2.79307 17.5537 1.7993C17.5537 0.805524 18.3592 0 19.353 0C20.3468 0 21.1523 0.805524 21.1523 1.7993C21.1523 2.79307 20.3468 3.5986 19.353 3.5986Z" fill="#7FCCCB"/>
<path d="M44.5432 7.19721C44.0464 7.19721 43.6436 6.79439 43.6436 6.29756V5.39791C43.6436 4.90108 44.0464 4.49826 44.5432 4.49826C45.04 4.49826 45.4429 4.90108 45.4429 5.39791V6.29756C45.4429 6.79439 45.0401 7.19721 44.5432 7.19721Z" fill="#2276BB"/>
<path d="M44.5432 2.69895C44.0464 2.69895 43.6436 2.29613 43.6436 1.7993V0.89965C43.6436 0.402818 44.0464 0 44.5432 0C45.04 0 45.4429 0.402818 45.4429 0.89965V1.7993C45.4429 2.29613 45.0401 2.69895 44.5432 2.69895Z" fill="#2276BB"/>
<path d="M47.2422 4.49824H46.3425C45.8457 4.49824 45.4429 4.09542 45.4429 3.59859C45.4429 3.10176 45.8457 2.69894 46.3425 2.69894H47.2422C47.739 2.69894 48.1418 3.10176 48.1418 3.59859C48.1418 4.09542 47.7391 4.49824 47.2422 4.49824Z" fill="#2276BB"/>
<path d="M42.7439 4.49824H41.8442C41.3474 4.49824 40.9446 4.09542 40.9446 3.59859C40.9446 3.10176 41.3474 2.69894 41.8442 2.69894H42.7439C43.2407 2.69894 43.6435 3.10176 43.6435 3.59859C43.6435 4.09542 43.2408 4.49824 42.7439 4.49824Z" fill="#2276BB"/>
<path d="M7.60176 26.0898C7.501 25.7048 7.41104 25.3161 7.32737 24.9203L4.98828 34.5177L5.16821 36.712C5.56035 41.3901 7.56994 45.7853 10.8513 49.1425L24.0699 44.1458C23.9979 44.1233 23.9232 44.1071 23.8512 44.0828C15.8359 41.0774 9.77757 34.369 7.60176 26.0898Z" fill="white"/>
<path d="M24.0697 44.1458C23.9978 44.1233 23.9231 44.1071 23.8511 44.0828C22.9852 43.755 22.1371 43.3818 21.3105 42.9645L9.40454 47.4691C9.85594 48.0545 10.3392 48.6147 10.8521 49.1469L24.0697 44.1458Z" fill="#F6F6E7"/>
<path d="M38.2456 10.7769V15.2941H33.7285V10.7769H38.2456Z" fill="#C9DA53"/>
<path d="M22.052 26.9895C21.5552 26.9894 21.1525 26.5864 21.1526 26.0896C21.1527 25.8348 21.2608 25.592 21.4501 25.4214L30.4466 17.3246C30.8224 16.9995 31.3905 17.0405 31.7156 17.4162C32.0317 17.7815 32.0029 18.3312 31.6504 18.6614L22.6539 26.7583C22.4888 26.9071 22.2743 26.9894 22.052 26.9895Z" fill="#FFBF41"/>
<path d="M48.1416 23.3909C47.6448 23.3909 47.2419 22.9881 47.2419 22.4913V21.5916C47.2419 21.0948 47.6448 20.692 48.1416 20.692C48.6384 20.692 49.0412 21.0948 49.0412 21.5916V22.4913C49.0412 22.9881 48.6385 23.3909 48.1416 23.3909Z" fill="#FFDB43"/>
<path d="M51.3228 22.0729C51.084 22.0736 50.8549 21.9787 50.6867 21.8093L50.0507 21.1732C49.7055 20.8159 49.7153 20.2463 50.0727 19.9011C50.4213 19.5644 50.974 19.5644 51.3228 19.9011L51.9588 20.5372C52.3101 20.8886 52.31 21.4582 51.9586 21.8095C51.79 21.9781 51.5613 22.0729 51.3228 22.0729Z" fill="#FFDB43"/>
<path d="M52.6399 18.8927H51.7402C51.2434 18.8927 50.8406 18.4898 50.8406 17.993C50.8406 17.4962 51.2434 17.0934 51.7402 17.0934H52.6399C53.1367 17.0934 53.5395 17.4962 53.5395 17.993C53.5395 18.4898 53.1368 18.8927 52.6399 18.8927Z" fill="#FFDB43"/>
<path d="M50.6868 16.3485C50.19 16.3483 49.7872 15.9455 49.7874 15.4486C49.7874 15.2101 49.8822 14.9813 50.0507 14.8128L50.6868 14.1767C51.0442 13.8315 51.6137 13.8414 51.9589 14.1987C52.2956 14.5474 52.2956 15.1001 51.9589 15.4488L51.3228 16.0849C51.1542 16.2535 50.9254 16.3485 50.6868 16.3485Z" fill="#FFDB43"/>
<path d="M48.1416 15.294C47.6448 15.294 47.2419 14.8912 47.2419 14.3944V13.4947C47.2419 12.9979 47.6448 12.5951 48.1416 12.5951C48.6384 12.5951 49.0412 12.9979 49.0412 13.4947V14.3944C49.0412 14.8912 48.6385 15.294 48.1416 15.294Z" fill="#FFDB43"/>
<path d="M45.5964 16.3484C45.3578 16.3484 45.1291 16.2535 44.9604 16.0848L44.3243 15.4488C43.9792 15.0914 43.989 14.5218 44.3464 14.1767C44.695 13.84 45.2477 13.84 45.5964 14.1767L46.2325 14.8127C46.5838 15.1642 46.5837 15.7338 46.2323 16.0851C46.0637 16.2536 45.835 16.3484 45.5964 16.3484Z" fill="#FFDB43"/>
<path d="M4.95845 0.899658L6.34841 3.71646L9.4567 4.16808L7.20758 6.36053L7.73837 9.45622L4.95845 7.99429L2.17854 9.45622L2.70933 6.36053L0.460205 4.16808L3.56849 3.71646L4.95845 0.899658Z" fill="#FFDB43"/>
<path d="M53.2554 48.7304C52.8275 47.2139 51.8422 45.9154 50.497 45.0949L50.1264 44.5389C48.0481 41.431 44.78 39.3177 41.093 38.6975C40.6011 38.6273 40.1455 38.9692 40.0753 39.4611C40.0075 39.9363 40.3247 40.3811 40.7961 40.4716C43.4555 40.923 45.879 42.2741 47.6613 44.2987C46.1629 44.5683 44.8523 45.4683 44.0628 46.7701C43.0938 48.5054 43.7152 50.6975 45.4505 51.6664C47.1858 52.6353 49.3779 52.014 50.3468 50.2787C50.7169 49.5643 50.9167 48.7738 50.9307 47.9693C51.8879 49.3596 51.9645 51.1752 51.1277 52.6412C50.8742 53.0685 51.0151 53.6205 51.4425 53.8739C51.8698 54.1274 52.4217 53.9865 52.6752 53.5592C52.6833 53.5454 52.6911 53.5316 52.6985 53.5174C53.5158 52.0601 53.7163 50.3364 53.2554 48.7304ZM48.7778 49.4006C48.2976 50.2707 47.2031 50.5867 46.3331 50.1065C45.4631 49.6263 45.1471 48.5318 45.6272 47.6618C45.6299 47.657 45.6326 47.6521 45.6353 47.6472C46.1662 46.7779 47.0617 46.1952 48.0716 46.062C48.228 46.0578 48.3829 46.0938 48.5214 46.1664C49.2807 46.5901 49.3212 48.4272 48.7778 49.4006Z" fill="#2BB3CE"/>
</svg>
