<svg width="62" height="62" viewBox="0 0 62 62" fill="none" xmlns="http://www.w3.org/2000/svg">
<g clip-path="url(#clip0)">
<path d="M55.812 18.7089V20.5902C55.812 22.5075 55.5946 24.3993 55.1723 26.2343C55.1723 26.2343 53.9569 27.7229 53.6712 28.5524C53.5286 28.9666 53.9867 29.997 53.9867 29.997C52.8734 32.7499 51.2684 35.3054 49.2199 37.5394L49.1635 37.5983L40.3025 46.4592L40.1345 46.5684C40.0442 46.6273 37.8707 48.0282 35.3033 49.216C33.0884 50.2407 31.2723 50.7988 29.7874 50.8991V18.7089H55.812Z" fill="#E8E6F2"/>
<path d="M29.7871 18.7089V50.8991C29.6253 50.9104 29.4672 50.9154 29.313 50.9154C28.3134 50.9154 27.4756 50.6859 26.7757 50.2306C23.9287 48.3782 12.5042 39.5586 12.0188 39.1836L11.9561 39.136L11.8972 39.0821C9.1249 36.5398 6.98674 33.4227 5.59972 29.9973C5.59972 29.9973 6.98975 28.7431 6.79121 28.1153C6.59267 27.4876 4.40949 26.2344 4.40949 26.2344C3.98332 24.3965 3.76245 22.5034 3.76245 20.5902V18.7089H29.7871Z" fill="#FFF5F5"/>
<path d="M9.8562 4.62866L12.712 2.17921L20.2396 10.9556L17.3838 13.405L9.8562 4.62866Z" fill="#FF4A4A"/>
<path d="M39.9668 10.9741L47.4944 2.19769L50.3502 4.64714L42.8226 13.4235L39.9668 10.9741Z" fill="#D00050"/>
<path d="M29.7874 0.899231H31.6687V12.187H29.7874V0.899231Z" fill="#D00050"/>
<path d="M27.906 0.899231H29.7873V12.187H27.906V0.899231Z" fill="#FF4A4A"/>
<path d="M62.0002 32.8461C62.0002 33.9686 61.5486 35.0899 60.6481 35.9139L42.0158 52.9484H29.7874V34.7625H34.537C37.9748 34.7625 40.7616 37.5494 40.7616 40.9871V42.2877L55.1021 29.7194C56.71 28.311 59.123 28.3498 60.6833 29.811C61.5612 30.6325 62.0002 31.7399 62.0002 32.8461Z" fill="#FFCCBD"/>
<path d="M29.7872 34.7626V52.9484H16.3046L6.71372 61.1007H0V47.9969L13.8075 37.2359C15.8305 35.6342 18.3364 34.7626 20.9175 34.7626H29.7872Z" fill="#FFDDCE"/>
<path d="M40.7616 42.3028L36.7431 46.0654H29.7874V42.3028H40.7616Z" fill="#FFBDA9"/>
<path d="M25.7109 42.3028H29.7871V46.0654H25.7109V42.3028Z" fill="#FFCCBD"/>
<path d="M55.1711 26.234C54.8751 27.5196 54.4787 28.7775 53.9858 29.9966H29.7874V26.234H55.1711Z" fill="#6666FF"/>
<path d="M29.7871 26.234V29.9966H5.60112C5.10697 28.7775 4.70939 27.5196 4.41089 26.234H29.7871Z" fill="#6699FF"/>
</g>
<defs>
<clipPath id="clip0">
<rect width="62" height="62" fill="white"/>
</clipPath>
</defs>
</svg>
