<svg width="59" height="58" viewBox="0 0 59 58" fill="none" xmlns="http://www.w3.org/2000/svg">
<g clip-path="url(#clip0)">
<path d="M29.4999 11.2968H24.9178C24.4727 11.2968 24.0459 11.4723 23.7161 11.7908C22.8173 12.6588 21.1623 13.6935 18.3818 13.6935C15.0962 13.6935 12.5533 12.001 11.2216 8.92786C10.9581 8.31976 10.3499 7.9269 9.67207 7.9269H5.60741C4.78786 7.9269 4.12354 7.27384 4.12354 6.46818C4.12354 5.66253 4.78798 5.00946 5.60741 5.00946H9.67207C11.5415 5.00946 13.2215 6.09877 13.952 7.78451C14.8122 9.76965 16.3025 10.776 18.3818 10.776C20.1591 10.776 21.1326 10.1962 21.6363 9.70972C22.5244 8.85196 23.6899 8.37946 24.9178 8.37946H29.4999V11.2968Z" fill="#5B5555"/>
<path d="M7.86784 12.4816C7.37614 12.4816 6.97754 12.0898 6.97754 11.6064V4.19894C6.97754 3.71557 7.37614 3.32373 7.86784 3.32373C8.35955 3.32373 8.75814 3.71557 8.75814 4.19894V11.6063C8.75826 12.0897 8.35955 12.4816 7.86784 12.4816Z" fill="#FFD597"/>
<path d="M29.5 11.2968H34.0821C34.5272 11.2968 34.9539 11.4723 35.2837 11.7908C36.1826 12.6588 37.8376 13.6935 40.618 13.6935C43.9037 13.6935 46.4466 12.001 47.7783 8.92786C48.0418 8.31976 48.65 7.9269 49.3278 7.9269H53.3925C54.212 7.9269 54.8763 7.27384 54.8763 6.46818C54.8763 5.66253 54.2119 5.00946 53.3925 5.00946H49.3278C47.4584 5.00946 45.7784 6.09877 45.0479 7.78451C44.1877 9.76965 42.6973 10.776 40.618 10.776C38.8408 10.776 37.8673 10.1962 37.3636 9.70972C36.4755 8.85196 35.31 8.37946 34.0821 8.37946H29.5V11.2968Z" fill="#5B5555"/>
<path d="M51.1318 12.4816C50.6399 12.4816 50.2415 12.0898 50.2415 11.6064L50.2416 4.19906C50.2416 3.71569 50.6403 3.32385 51.1319 3.32385C51.6237 3.32385 52.0222 3.71569 52.0222 4.19906L52.0221 11.6064C52.0222 12.0897 51.6235 12.4816 51.1318 12.4816Z" fill="#FFD597"/>
<path d="M32.447 55.8067H26.5532L27.9928 4.96838H31.0074L32.447 55.8067Z" fill="#FCB44D"/>
<path d="M31.1231 9.02838C30.6174 9.2128 30.0701 9.31317 29.5003 9.31317C28.9304 9.31317 28.3832 9.2128 27.8774 9.02838L27.9926 4.96838H31.0079L31.1231 9.02838Z" fill="#FB9927"/>
<path d="M27.0455 38.4288L26.9114 43.1658H32.0891L31.955 38.4288H27.0455Z" fill="#FB9927"/>
<path d="M13.9251 39.6006C13.5292 39.6006 13.1679 39.3392 13.064 38.9449L7.86816 19.2492L2.67235 38.945C2.54894 39.4128 2.06288 39.6935 1.58696 39.5724C1.11104 39.4511 0.825147 38.9734 0.948679 38.5054L7.00632 15.5428C7.10818 15.1568 7.46253 14.8872 7.86816 14.8872C8.27378 14.8872 8.62813 15.1567 8.72999 15.5428L14.7876 38.5054C14.911 38.9734 14.6253 39.4511 14.1494 39.5724C14.0743 39.5915 13.9991 39.6006 13.9251 39.6006Z" fill="#FFD597"/>
<path d="M10.7306 45.0247H5.00544C2.24096 45.0247 0 42.8217 0 40.1041V39.5375C0 38.7666 0.635748 38.1417 1.41992 38.1417H14.316C15.1002 38.1417 15.7359 38.7666 15.7359 39.5375V40.1041C15.7359 42.8217 13.495 45.0247 10.7306 45.0247Z" fill="#FCB44D"/>
<path d="M15.7308 40.3433C15.701 40.9642 15.5539 41.5546 15.3117 42.0938H0.425211C0.182988 41.5547 0.035834 40.9642 0.00610352 40.3433H15.7308Z" fill="#FB9927"/>
<path d="M15.736 39.5382V40.1035C15.736 42.8212 13.4954 45.0252 10.7308 45.0252H6.72949C9.49408 45.0252 11.7347 42.8212 11.7347 40.1035V39.5382C11.7347 38.7663 11.0986 38.1423 10.3148 38.1423H14.3161C15.0999 38.1423 15.736 38.7663 15.736 39.5382Z" fill="#FB9927"/>
<path d="M7.86805 15.7631C9.10105 15.7631 10.1006 14.7805 10.1006 13.5684C10.1006 12.3563 9.10105 11.3737 7.86805 11.3737C6.63505 11.3737 5.6355 12.3563 5.6355 13.5684C5.6355 14.7805 6.63505 15.7631 7.86805 15.7631Z" fill="#FCB44D"/>
<path d="M10.1003 13.5678C10.1003 14.7801 9.10074 15.7627 7.8675 15.7627C7.37972 15.7627 6.92938 15.6088 6.56201 15.3483C7.33281 15.0026 7.8675 14.2379 7.8675 13.3511C7.8675 12.6183 7.50255 11.9695 6.94136 11.5717C7.22323 11.4438 7.53747 11.3727 7.8675 11.3727C9.10074 11.3729 10.1003 12.3555 10.1003 13.5678Z" fill="#FB9927"/>
<path d="M57.1893 39.6006C56.7933 39.6006 56.4321 39.3392 56.328 38.9449L51.1321 19.2491L45.9364 38.945C45.813 39.4128 45.3276 39.6938 44.8511 39.5724C44.3751 39.4511 44.0893 38.9734 44.2128 38.5054L50.2704 15.5428C50.3721 15.1568 50.7266 14.8872 51.1322 14.8872C51.5378 14.8872 51.8923 15.1567 51.994 15.5428L58.0517 38.5054C58.1751 38.9734 57.8894 39.4511 57.4134 39.5724C57.3384 39.5915 57.2632 39.6006 57.1893 39.6006Z" fill="#FFD597"/>
<path d="M53.9945 45.0247H48.2694C45.505 45.0247 43.2639 42.8218 43.2639 40.1041V39.5375C43.2639 38.7666 43.8997 38.1417 44.6838 38.1417H57.5799C58.3641 38.1417 58.9999 38.7666 58.9999 39.5375V40.1041C58.9999 42.8217 56.7589 45.0247 53.9945 45.0247Z" fill="#FCB44D"/>
<path d="M58.9939 40.3433C58.9642 40.9642 58.817 41.5546 58.5748 42.0938H43.6884C43.4462 41.5547 43.299 40.9642 43.2693 40.3433H58.9939Z" fill="#FB9927"/>
<path d="M58.9999 39.5382V40.1035C58.9999 42.8212 56.7593 45.0252 53.9947 45.0252H49.9934C52.758 45.0252 54.9986 42.8212 54.9986 40.1035V39.5382C54.9986 38.7663 54.3625 38.1423 53.5787 38.1423H57.58C58.3638 38.1423 58.9999 38.7663 58.9999 39.5382Z" fill="#FB9927"/>
<path d="M15.7306 40.3433C15.7009 40.9642 15.5537 41.5546 15.3115 42.0939H11.3086C11.552 41.5548 11.6991 40.9642 11.7289 40.3433H15.7306Z" fill="#F98824"/>
<path d="M58.9939 40.3433C58.9642 40.9642 58.817 41.5546 58.5748 42.0939H54.5718C54.8152 41.5548 54.9623 40.9642 54.992 40.3433H58.9939Z" fill="#F98824"/>
<path d="M51.132 15.7631C52.365 15.7631 53.3645 14.7805 53.3645 13.5684C53.3645 12.3563 52.365 11.3737 51.132 11.3737C49.899 11.3737 48.8994 12.3563 48.8994 13.5684C48.8994 14.7805 49.899 15.7631 51.132 15.7631Z" fill="#FCB44D"/>
<path d="M53.3642 13.5678C53.3642 14.7801 52.3647 15.7627 51.1314 15.7627C50.6436 15.7627 50.1933 15.6088 49.8259 15.3483C50.5967 15.0026 51.1314 14.2379 51.1314 13.3511C51.1314 12.6183 50.7665 11.9695 50.2053 11.5717C50.4871 11.4438 50.8014 11.3727 51.1314 11.3727C52.3647 11.3729 53.3642 12.3555 53.3642 13.5678Z" fill="#FB9927"/>
<path d="M29.5001 38.278C31.6437 38.278 33.3815 36.5697 33.3815 34.4624C33.3815 32.3551 31.6437 30.6467 29.5001 30.6467C27.3564 30.6467 25.6187 32.3551 25.6187 34.4624C25.6187 36.5697 27.3564 38.278 29.5001 38.278Z" fill="#FB9927"/>
<path d="M33.382 34.4621C33.382 36.5697 31.6441 38.2782 29.5001 38.2782C28.9789 38.2782 28.4816 38.1767 28.0269 37.9934C29.4395 37.4227 30.4343 36.0562 30.4343 34.4621C30.4343 32.868 29.4395 31.5026 28.0269 30.9319C28.4816 30.7487 28.9789 30.6471 29.5001 30.6471C31.6441 30.6471 33.382 32.3556 33.382 34.4621Z" fill="#F98824"/>
<path d="M29.4998 7.03655C31.094 7.03655 32.3863 5.76613 32.3863 4.19897C32.3863 2.63182 31.094 1.36139 29.4998 1.36139C27.9056 1.36139 26.6133 2.63182 26.6133 4.19897C26.6133 5.76613 27.9056 7.03655 29.4998 7.03655Z" fill="#FFD597"/>
<path d="M32.387 4.19955C32.387 5.76645 31.0938 7.03622 29.4999 7.03622C29.0465 7.03622 28.6184 6.93427 28.2363 6.75087C29.1962 6.28925 29.8584 5.32092 29.8584 4.19966C29.8584 3.0784 29.1962 2.1086 28.2363 1.64698C28.6186 1.46346 29.0467 1.36151 29.4999 1.36151C31.0938 1.3614 32.387 2.63117 32.387 4.19955Z" fill="#FCC16D"/>
<path d="M41.3122 53.3957H17.6877V50.3504C17.6877 49.3837 18.4849 48.5999 19.4685 48.5999H39.5314C40.5149 48.5999 41.3122 49.3836 41.3122 50.3504V53.3957Z" fill="#756F6F"/>
<path d="M41.3119 50.3508V53.3954H38.3654V50.3508C38.3654 49.3833 37.5677 48.6002 36.5847 48.6002H39.5311C40.5154 48.6002 41.3119 49.3833 41.3119 50.3508Z" fill="#5B5555"/>
<path d="M45.1979 56.6385H13.8016C13.146 56.6385 12.6145 56.1161 12.6145 55.4715V53.5795C12.6145 52.9349 13.146 52.4125 13.8016 52.4125H45.1978C45.8535 52.4125 46.385 52.9349 46.385 53.5795V55.4715C46.385 56.1161 45.8535 56.6385 45.1979 56.6385Z" fill="#FFD597"/>
<path d="M46.3855 53.5799V55.4715C46.3855 56.1158 45.8537 56.6386 45.1983 56.6386H42.2507C42.9072 56.6386 43.4379 56.1158 43.4379 55.4715V53.5799C43.4379 52.9345 42.9072 52.4128 42.2507 52.4128H45.1983C45.8537 52.4128 46.3855 52.9345 46.3855 53.5799Z" fill="#FCC16D"/>
<path d="M33.6046 40.5949H25.3952C24.7395 40.5949 24.208 40.0724 24.208 39.4279V37.9314C24.208 37.2869 24.7395 36.7644 25.3952 36.7644H33.6046C34.2602 36.7644 34.7917 37.2869 34.7917 37.9314V39.4279C34.7916 40.0724 34.2601 40.5949 33.6046 40.5949Z" fill="#FFD597"/>
<path d="M34.7922 37.9315V39.4276C34.7922 40.0718 34.2604 40.5946 33.605 40.5946H30.6575C31.314 40.5946 31.8446 40.0718 31.8446 39.4276V37.9315C31.8446 37.2873 31.314 36.7645 30.6575 36.7645H33.605C34.2604 36.7645 34.7922 37.2873 34.7922 37.9315Z" fill="#FCC16D"/>
</g>
<defs>
<clipPath id="clip0">
<rect width="59" height="58" fill="white"/>
</clipPath>
</defs>
</svg>
