<svg width="58" height="58" viewBox="0 0 58 58" fill="none" xmlns="http://www.w3.org/2000/svg">
<path d="M55.837 46.674L46.6741 55.837L42.9471 52.1089C42.7567 51.9197 42.5545 51.747 42.3404 51.5909C41.3682 50.8753 40.17 50.5122 38.9482 50.5784C35.9806 50.7392 31.0247 51.094 28.9809 51.7435C28.5327 51.8865 27.7851 50.6885 27.7851 50.6885C27.4339 49.456 27.9684 48.1419 29.0803 47.5056L34.2087 45.4286L20.0854 31.3052C19.3498 30.5696 19.3498 29.3773 20.0854 28.6404L20.2261 28.4997C20.9618 27.764 22.1541 27.764 22.8897 28.4997L23.371 28.981C22.6519 28.2619 22.6519 27.0957 23.371 26.3766L23.5721 26.1755C24.2912 25.4564 25.4574 25.4575 26.1765 26.1766L26.5563 26.5564C25.8502 25.8503 25.8502 24.7053 26.5563 23.9992L26.8047 23.7507C27.5108 23.0446 28.6557 23.0446 29.3619 23.7507L30.1354 24.5242C29.4565 23.8464 29.4565 22.7454 30.1354 22.0676L30.4832 21.7198C30.8462 21.3555 31.3312 21.1876 31.8067 21.2136C32.2195 21.236 32.6252 21.4052 32.9399 21.7198L49.515 38.2942C50.1963 38.9755 50.608 39.8802 50.6754 40.8419C50.6919 41.0749 50.7487 41.2996 50.8445 41.5077C50.9391 41.7171 51.0716 41.9088 51.236 42.0731L55.837 46.674Z" fill="#D8AD8F"/>
<path d="M38.5627 31.7113C38.5638 32.6504 38.1973 33.5328 37.5337 34.1964L30.2549 41.4751L20.0854 31.3057C19.3498 30.57 19.3498 29.3777 20.0854 28.6408L20.2261 28.5002C20.9618 27.7645 22.1541 27.7645 22.8897 28.5002L23.371 28.9815C22.6519 28.2624 22.6519 27.0961 23.371 26.377L23.5721 26.176C24.2912 25.4569 25.4574 25.458 26.1766 26.1771L26.5563 26.5568C25.8502 25.8507 25.8502 24.7058 26.5563 23.9996L26.8047 23.7512C27.5108 23.0451 28.6557 23.0451 29.3619 23.7512L30.1354 24.5247C29.4565 23.8469 29.4565 22.7458 30.1354 22.0681L30.4832 21.7203C30.8462 21.356 31.3312 21.1881 31.8067 21.214C31.8126 21.2696 31.8174 21.3253 31.8198 21.3808C32.2089 21.5582 32.5661 21.8054 32.8784 22.1164L33.0794 22.3175C33.1185 22.3577 33.1587 22.4003 33.1966 22.4429C33.7454 23.0461 34.0552 23.783 34.125 24.5364C34.5426 24.7138 34.9258 24.9717 35.2558 25.3017L35.5136 25.5607C35.5349 25.582 35.5562 25.6045 35.5763 25.6258C36.306 26.3992 36.6301 27.4 36.5497 28.3745C36.7792 28.5176 36.9932 28.6867 37.1884 28.8819L37.5349 29.2284C38.1973 29.891 38.5627 30.7734 38.5627 31.7113Z" fill="#C19476"/>
<path d="M31.2771 23.3829L47.8518 39.9576C48.5332 40.639 48.9455 41.5437 49.0121 42.5051C49.0288 42.7373 49.086 42.9624 49.1816 43.1714C49.2761 43.3804 49.4084 43.5715 49.5729 43.736L54.1743 48.3375L55.8373 46.6745L51.2358 42.073C51.0713 41.9085 50.939 41.7174 50.8445 41.5084C50.7489 41.2995 50.6917 41.0744 50.6751 40.8421C50.6084 39.8807 50.196 38.9759 49.5147 38.2946L32.94 21.7198C32.2615 21.0413 31.1612 21.0413 30.4826 21.7198L30.1353 22.0671C29.8932 22.3092 29.738 22.605 29.6687 22.9162C30.2296 22.7911 30.8405 22.9464 31.2771 23.3829Z" fill="#C19476"/>
<path d="M42.3411 51.5903L51.5473 42.3841L55.8376 46.6744L46.6747 55.8372L42.9469 52.1094C42.7571 51.92 42.5549 51.7465 42.3411 51.5903Z" fill="#C19476"/>
<path d="M44.4356 53.6526L53.6524 44.4358C54.0219 44.0663 54.621 44.0663 54.9905 44.4358L57.7225 47.1678C58.0921 47.5374 58.0921 48.1365 57.7225 48.506L48.5058 57.7228C48.1363 58.0923 47.5371 58.0923 47.1676 57.7228L44.4356 54.9908C44.0661 54.6212 44.0661 54.0221 44.4356 53.6526Z" fill="#2796AF"/>
<path d="M52.1143 45.974L53.6525 44.4357C54.022 44.0662 54.6212 44.0662 54.9907 44.4357L57.7227 47.1677C58.0922 47.5373 58.0922 48.1364 57.7227 48.5059L56.1844 50.0442L52.1143 45.974Z" fill="#0E7889"/>
<path d="M34.0198 40.5167C33.7928 40.5167 33.5658 40.43 33.3926 40.2569L22.7442 29.6085C22.3978 29.262 22.3978 28.7004 22.7442 28.3539C23.0906 28.0076 23.6522 28.0076 23.9987 28.3539L34.6471 39.0023C34.9935 39.3489 34.9935 39.9104 34.6471 40.2569C34.474 40.43 34.2469 40.5167 34.0198 40.5167Z" fill="#C19476"/>
<path d="M37.8098 38.6965C37.5828 38.6965 37.3558 38.6098 37.1826 38.4367L25.9295 27.1836C25.5831 26.8371 25.5831 26.2755 25.9295 25.929C26.2759 25.5827 26.8375 25.5827 27.184 25.929L38.4371 37.1821C38.7835 37.5287 38.7835 38.0902 38.4371 38.4367C38.264 38.6098 38.0369 38.6965 37.8098 38.6965Z" fill="#C19476"/>
<path d="M39.63 34.9066C39.403 34.9066 39.176 34.8199 39.0028 34.6468L29.5081 25.1523C29.1617 24.8057 29.1617 24.2442 29.5081 23.8977C29.8545 23.5514 30.4162 23.5514 30.7626 23.8977L40.2572 33.3922C40.6037 33.7387 40.6037 34.3003 40.2572 34.6468C40.084 34.8198 39.857 34.9066 39.63 34.9066Z" fill="#C19476"/>
<path d="M37.9143 29.3595L37.7772 29.4967L37.7736 29.5002C37.038 30.2358 35.8457 30.2358 35.1101 29.5002L34.6287 29.0188C35.3478 29.7379 35.3478 30.9041 34.6287 31.6232L34.4277 31.8243C33.7086 32.5434 32.5423 32.5423 31.8232 31.8231L31.4435 31.4434C32.1496 32.1495 32.1496 33.2944 31.4435 34.0006L31.1951 34.2491C30.489 34.9551 29.3441 34.9551 28.6379 34.2491L27.8644 33.4756C28.5433 34.1533 28.5433 35.2544 27.8644 35.9322L27.5166 36.28C26.8389 36.9589 25.7378 36.9589 25.06 36.28L16.5251 27.745L8.4846 19.7057C7.80333 19.0244 7.39167 18.1196 7.32427 17.158C7.30773 16.925 7.25097 16.7002 7.15514 16.4921C7.06055 16.2828 6.92801 16.0911 6.76364 15.9268L2.16284 11.326L11.3258 2.16299L15.0528 5.89107C15.2432 6.08037 15.4454 6.25301 15.6595 6.40911C16.6318 7.1247 17.8298 7.48777 19.0517 7.42161C22.0193 7.26075 26.9751 6.90596 29.0189 6.25652C29.4672 6.11344 30.2147 7.3115 30.2147 7.3115C30.566 8.544 30.0315 9.85795 28.9196 10.4944L23.7911 12.5713L29.1562 17.9364L31.6448 20.4249L37.9147 26.6948C38.65 27.4306 38.65 28.6227 37.9143 29.3595Z" fill="#F9E8D4"/>
<path d="M37.7772 29.4967L37.7737 29.5002C37.0381 30.2359 35.8458 30.2359 35.1101 29.5002L34.6288 29.0188C35.3479 29.7379 35.3479 30.9041 34.6288 31.6232L34.4277 31.8243C33.7086 32.5434 32.5424 32.5423 31.8233 31.8231L31.4436 31.4434C32.1497 32.1495 32.1497 33.2944 31.4436 34.0006L31.1951 34.2491C30.4891 34.9551 29.3441 34.9551 28.6379 34.2491L27.8645 33.4756C28.5434 34.1533 28.5434 35.2544 27.8645 35.9322L27.5167 36.28C26.8389 36.9589 25.7378 36.9589 25.0601 36.28L16.5251 27.745L25.4397 18.8305C26.1316 18.1397 27.0494 17.7589 28.0265 17.7589C28.4156 17.7589 28.7953 17.8192 29.156 17.9362C29.6988 18.1113 30.1968 18.4141 30.6131 18.8292L30.755 18.9723C30.7964 19.0138 30.8592 19.0776 30.9266 19.1556C31.2578 19.5365 31.4978 19.9693 31.6445 20.4247C31.7463 20.7358 31.8043 21.0575 31.8196 21.3803C32.2087 21.5577 32.5658 21.8049 32.8782 22.116L33.0792 22.3171C33.1183 22.3573 33.1585 22.3999 33.1964 22.4425C33.7452 23.0457 34.055 23.7826 34.1248 24.536C34.5424 24.7134 34.9256 24.9712 35.2556 25.3012L35.5134 25.5603C35.5347 25.5816 35.556 25.604 35.5761 25.6253C36.3058 26.3988 36.6299 27.3995 36.5495 28.3741C36.779 28.5172 36.993 28.6863 37.1882 28.8815L37.5347 29.228C37.6211 29.3145 37.7016 29.4032 37.7772 29.4967Z" fill="#EFCDB1"/>
<path d="M26.7227 34.6171L10.1481 18.0424C9.46673 17.361 9.05439 16.4564 8.98778 15.495C8.97113 15.2627 8.91392 15.0376 8.81831 14.8286C8.72384 14.6196 8.59152 14.4285 8.42704 14.264L3.82556 9.66257L2.1626 11.3255L6.76407 15.927C6.92856 16.0915 7.06087 16.2826 7.15535 16.4916C7.25096 16.7005 7.30816 16.9256 7.32482 17.1579C7.39154 18.1193 7.80388 19.0241 8.48515 19.7054L25.0599 36.2801C25.7384 36.9586 26.8387 36.9586 27.5173 36.2801L27.8646 35.9328C28.1067 35.6907 28.2619 35.3949 28.3312 35.0837C27.7702 35.2088 27.1593 35.0536 26.7227 34.6171Z" fill="#EFCDB1"/>
<path d="M15.6591 6.40969L6.45289 15.6159L2.1626 11.3256L11.3254 2.16278L15.0533 5.89063C15.2429 6.08004 15.4453 6.25336 15.6591 6.40969Z" fill="#EFCDB1"/>
<path d="M13.5647 4.34737L4.34793 13.5641C3.97841 13.9337 3.37927 13.9337 3.00974 13.5641L0.27763 10.8324C-0.0918924 10.4628 -0.0918924 9.8637 0.27763 9.49418L9.49451 0.277295C9.86404 -0.0922281 10.4632 -0.0922281 10.8327 0.277295L13.5647 3.00929C13.9342 3.37882 13.9342 3.97785 13.5647 4.34737Z" fill="#FB4239"/>
<path d="M5.88582 12.026L4.34746 13.5643C3.97794 13.9338 3.37879 13.9338 3.00927 13.5643L0.277386 10.8323C-0.0921365 10.4627 -0.0921365 9.86361 0.277386 9.49408L1.81563 7.95584L5.88582 12.026Z" fill="#C4000A"/>
<path d="M34.6287 29.9059C34.4017 29.9059 34.1747 29.8192 34.0015 29.6461L23.3531 18.9977C23.0067 18.6512 23.0067 18.0897 23.3531 17.7431C23.6995 17.3968 24.2611 17.3968 24.6075 17.7431L35.256 28.3916C35.6024 28.7381 35.6024 29.2996 35.256 29.6461C35.0826 29.8192 34.8556 29.9059 34.6287 29.9059Z" fill="#EFCDB1"/>
<path d="M31.4434 32.3306C31.2164 32.3306 30.9894 32.244 30.8161 32.0709L19.563 20.8178C19.2166 20.4713 19.2166 19.9097 19.563 19.5632C19.9094 19.2169 20.4711 19.2169 20.8175 19.5632L32.0706 30.8163C32.417 31.1628 32.417 31.7244 32.0706 32.0709C31.8974 32.244 31.6704 32.3306 31.4434 32.3306Z" fill="#EFCDB1"/>
<path d="M27.8648 34.3621C27.6378 34.3621 27.4108 34.2754 27.2376 34.1024L17.743 24.6078C17.3966 24.2613 17.3966 23.6998 17.743 23.3532C18.0894 23.0069 18.651 23.0069 18.9974 23.3532L28.4921 32.8478C28.8385 33.1943 28.8385 33.7558 28.4921 34.1024C28.3188 34.2757 28.0918 34.3621 27.8648 34.3621Z" fill="#EFCDB1"/>
<path d="M51.5911 15.6595C50.8755 16.6318 50.5124 17.8299 50.5786 19.0517C50.7394 22.0194 51.0942 26.9752 51.7435 29.019C51.8866 29.4673 50.6886 30.2148 50.6886 30.2148C49.4561 30.5661 48.142 30.0315 47.5057 28.9197L45.4288 23.7912L31.3054 37.9145C30.5697 38.6502 29.3775 38.6502 28.6406 37.9145L28.4999 37.7737C27.7642 37.0381 27.7642 35.8458 28.4999 35.1101L28.9813 34.6288C28.2622 35.3479 27.096 35.3479 26.3769 34.6288L26.1758 34.4277C25.4567 33.7086 25.4578 32.5424 26.1769 31.8233L26.5566 31.4436C25.8506 32.1496 24.7056 32.1496 23.9994 31.4436L23.751 31.1952C23.0449 30.4892 23.0449 29.3442 23.751 28.638L24.5245 27.8646C23.8467 28.5434 22.7456 28.5434 22.0679 27.8646L21.7201 27.5168C21.0412 26.839 21.0412 25.7379 21.7201 25.0602L28.9137 17.8666L38.2944 8.48477C38.9756 7.8035 39.8804 7.39183 40.8421 7.32443C41.0751 7.30789 41.2998 7.25114 41.5079 7.1553C41.7173 7.06071 41.9089 6.92817 42.0733 6.7638L46.6743 2.16278L55.8373 11.3257L52.1092 15.0527C51.9199 15.2432 51.7472 15.4454 51.5911 15.6595Z" fill="#EFCDB1"/>
<path d="M38.4384 30.7812L31.3051 37.9145C30.5695 38.6501 29.3772 38.6501 28.6403 37.9145L28.4996 37.7737C27.764 37.038 27.764 35.8458 28.4996 35.1101L28.9811 34.6288C28.262 35.3479 27.0957 35.3479 26.3766 34.6288L26.1755 34.4277C25.4564 33.7086 25.4576 32.5424 26.1767 31.8233L26.5564 31.4435C25.8503 32.1496 24.7054 32.1496 23.9992 31.4435L23.7508 31.1952C23.0447 30.4891 23.0447 29.3442 23.7508 28.638L24.5243 27.8645C23.8465 28.5434 22.7454 28.5434 22.0676 27.8645L21.7199 27.5168C21.041 26.839 21.041 25.7379 21.7199 25.0602L28.9134 17.8666C29.551 18.0251 30.1364 18.3539 30.6131 18.8294L30.755 18.9724C30.7964 19.0139 30.8592 19.0777 30.9266 19.1557C31.4848 19.7968 31.7805 20.5845 31.8196 21.3806C32.2087 21.558 32.5658 21.8051 32.8782 22.1162L33.0792 22.3173C33.1183 22.3575 33.1585 22.4001 33.1964 22.4427C33.7452 23.0459 34.055 23.7828 34.1248 24.5362C34.5424 24.7136 34.9256 24.9715 35.2556 25.3014L35.5134 25.5605C35.5347 25.5818 35.556 25.6042 35.5761 25.6255C36.3058 26.399 36.6299 27.3997 36.5495 28.3743C36.779 28.5174 36.993 28.6865 37.1882 28.8817L37.5347 29.2282C37.9725 29.6658 38.2801 30.1993 38.4384 30.7812Z" fill="#D8AD8F"/>
<path d="M51.5905 15.6591L42.3843 6.45283L46.6746 2.16254L55.8374 11.3254L52.1096 15.0532C51.9202 15.2429 51.7467 15.4452 51.5905 15.6591Z" fill="#D8AD8F"/>
<path d="M23.3839 26.7232L39.9585 10.1486C40.6399 9.46719 41.5445 9.05485 42.506 8.98824C42.7382 8.97159 42.9633 8.91438 43.1723 8.81877C43.3813 8.72429 43.5724 8.59198 43.7369 8.4275L48.3384 3.82602L46.6754 2.16306L42.0739 6.76453C41.9094 6.92902 41.7183 7.06133 41.5093 7.15581C41.3004 7.25141 41.0753 7.30862 40.843 7.32527C39.8816 7.392 38.9768 7.80434 38.2955 8.48561L21.7208 25.0601C21.0423 25.7387 21.0423 26.839 21.7208 27.5175L22.0681 27.8648C22.3102 28.1069 22.606 28.2621 22.9172 28.3314C22.7921 27.7707 22.9474 27.1598 23.3839 26.7232Z" fill="#D8AD8F"/>
<path d="M53.6526 13.5644L44.4358 4.3476C44.0663 3.97808 44.0663 3.37894 44.4358 3.00942L47.1678 0.277417C47.5374 -0.092106 48.1365 -0.092106 48.506 0.277417L57.7228 9.49419C58.0923 9.86371 58.0923 10.4629 57.7228 10.8324L54.9908 13.5644C54.6212 13.9339 54.0221 13.9339 53.6526 13.5644Z" fill="#FEC007"/>
<path d="M45.9741 5.88576L44.4358 4.34751C44.0663 3.97799 44.0663 3.37885 44.4358 3.00932L47.1678 0.277325C47.5373 -0.0921976 48.1365 -0.0921976 48.506 0.277325L50.0443 1.81557L45.9741 5.88576Z" fill="#FE9700"/>
<path d="M28.9813 35.5159C28.7543 35.5159 28.5273 35.4292 28.354 35.2561C28.0076 34.9096 28.0076 34.348 28.354 34.0015L39.0025 23.3531C39.3489 23.0068 39.9105 23.0068 40.257 23.3531C40.6034 23.6996 40.6034 24.2612 40.257 24.6077L29.6085 35.2561C29.4352 35.4291 29.2083 35.5159 28.9813 35.5159Z" fill="#D8AD8F"/>
<path d="M26.5565 32.3303C26.3295 32.3303 26.1025 32.2436 25.9292 32.0705C25.5828 31.724 25.5828 31.1625 25.9292 30.816L37.1824 19.5627C37.5288 19.2164 38.0904 19.2164 38.4368 19.5627C38.7833 19.9093 38.7833 20.4708 38.4368 20.8173L27.1837 32.0705C27.0105 32.2436 26.7835 32.3303 26.5565 32.3303Z" fill="#D8AD8F"/>
<path d="M24.5247 28.7517C24.2977 28.7517 24.0707 28.6651 23.8975 28.492C23.5511 28.1455 23.5511 27.5839 23.8975 27.2374L33.392 17.7429C33.7385 17.3965 34.3002 17.3967 34.6465 17.7429C34.9929 18.0894 34.9929 18.6509 34.6465 18.9975L25.152 28.492C24.9789 28.6651 24.7518 28.7517 24.5247 28.7517Z" fill="#D8AD8F"/>
<path d="M36.2799 32.9397L19.7055 49.5151C19.0243 50.1964 18.1195 50.6081 17.1579 50.6755C16.9248 50.692 16.7001 50.7488 16.492 50.8446C16.2826 50.9392 16.091 51.0717 15.9266 51.2361L11.3257 55.837L2.16284 46.674L5.89092 42.9471C6.08021 42.7567 6.25285 42.5545 6.40896 42.3404C7.12455 41.3682 7.48762 40.17 7.42146 38.9482C7.2606 35.9805 6.90581 31.0247 6.25648 28.9809C6.1134 28.5327 7.31146 27.7851 7.31146 27.7851C8.54396 27.4338 9.85802 27.9684 10.4943 29.0803L12.5712 34.2087L26.6945 20.0855C27.4302 19.3499 28.6225 19.3499 29.3594 20.0855L29.5 20.2263C29.5296 20.2559 29.5581 20.2855 29.584 20.3162C30.2346 21.0566 30.2061 22.1837 29.5 22.8899L29.0186 23.3712C29.0718 23.318 29.1275 23.2695 29.1842 23.2245C29.9068 22.6556 30.9572 22.7054 31.6231 23.3712L31.8241 23.5723C31.843 23.5912 31.8608 23.6101 31.8774 23.6291C32.5432 24.3517 32.5232 25.4766 31.823 26.1768L31.4433 26.5565C31.4906 26.5091 31.5402 26.4654 31.5911 26.424C32.3008 25.8539 33.3416 25.8977 34.0004 26.5565L34.2488 26.8049C34.2594 26.8155 34.2701 26.8262 34.2795 26.8368C34.9549 27.5453 34.9442 28.6666 34.2488 29.3621L33.4753 30.1356C33.5203 30.0906 33.5664 30.0493 33.6149 30.009C34.2973 29.4602 35.2991 29.5017 35.9319 30.1356L36.2797 30.4834C36.9587 31.1609 36.9587 32.262 36.2799 32.9397Z" fill="#C19476"/>
<path d="M34.6172 31.2772L18.0424 47.8518C17.3611 48.5332 16.4564 48.9456 15.495 49.0122C15.2628 49.0288 15.0377 49.086 14.8287 49.1816C14.6197 49.2761 14.4286 49.4084 14.2641 49.5729L9.6626 54.1744L11.3256 55.8374L15.927 51.2359C16.0915 51.0714 16.2826 50.9391 16.4916 50.8446C16.7005 50.749 16.9256 50.6918 17.1579 50.6751C18.1194 50.6084 19.0241 50.1961 19.7054 49.5148L36.2801 32.9401C36.9587 32.2615 36.9587 31.1612 36.2801 30.4827L35.9328 30.1354C35.6907 29.8933 35.3949 29.7381 35.0838 29.6688C35.2088 30.2297 35.0536 30.8407 34.6172 31.2772Z" fill="#AA7F63"/>
<path d="M6.40975 42.3411L15.616 51.5473L11.3257 55.8374L2.16284 46.6745L5.89069 42.9467C6.0801 42.7571 6.25342 42.5549 6.40975 42.3411Z" fill="#AA7F63"/>
<path d="M4.34722 44.4356L13.564 53.6524C13.9335 54.0219 13.9335 54.6211 13.564 54.9906L10.832 57.7226C10.4625 58.0921 9.86332 58.0921 9.4938 57.7226L0.277142 48.5058C-0.0923807 48.1363 -0.0923807 47.5371 0.277142 47.1676L3.00914 44.4356C3.37866 44.0661 3.97769 44.0661 4.34722 44.4356Z" fill="#B9F268"/>
<path d="M12.026 52.1143L13.5642 53.6525C13.9338 54.022 13.9338 54.6212 13.5642 54.9907L10.8322 57.7227C10.4627 58.0922 9.86358 58.0922 9.49405 57.7227L7.95581 56.1843L12.026 52.1143Z" fill="#8BCC3F"/>
<path d="M29.5004 22.8899L29.0189 23.3712C29.0722 23.318 18.3799 34.0292 18.3799 34.0292C18.2073 34.2031 17.9802 34.2894 17.753 34.2894C17.5259 34.2894 17.2989 34.2031 17.125 34.0292C16.7796 33.6826 16.7796 33.1208 17.125 32.7742L29.5843 20.3162C30.2348 21.0566 30.2065 22.1837 29.5004 22.8899Z" fill="#AA7F63"/>
<path d="M31.8235 26.1767L31.4438 26.5564C31.4911 26.509 20.198 37.8175 20.198 37.8175C20.0254 37.9902 19.7982 38.0777 19.5711 38.0777C19.344 38.0777 19.117 37.9902 18.9442 37.8175C18.5977 37.471 18.5977 36.9091 18.9442 36.5626L31.8779 23.629C32.5437 24.3517 32.5237 25.4765 31.8235 26.1767Z" fill="#AA7F63"/>
<path d="M34.2493 29.3619L33.4758 30.1354C33.5207 30.0904 23.9876 39.6366 23.9876 39.6366C23.8149 39.8105 23.5878 39.8968 23.3607 39.8968C23.1335 39.8968 22.9065 39.8105 22.7338 39.6366C22.3872 39.2912 22.3872 38.7294 22.7338 38.3829L34.28 26.8367C34.9556 27.5452 34.9448 28.6666 34.2493 29.3619Z" fill="#AA7F63"/>
</svg>
