<svg width="58" height="58" viewBox="0 0 58 58" fill="none" xmlns="http://www.w3.org/2000/svg">
<path d="M37.6057 12.0788C37.6068 12.0551 37.6094 12.0318 37.6094 12.0078V6.91016H39.3086C40.2478 6.91016 41.0078 6.15015 41.0078 5.21094C41.0078 4.27172 40.2478 3.51172 39.3086 3.51172H32.5117C31.5725 3.51172 30.8125 4.27172 30.8125 5.21094C30.8125 6.15015 31.5725 6.91016 32.5117 6.91016H34.2109V12.0078C34.2109 12.0318 34.2135 12.0552 34.2146 12.0788C23.761 12.9435 15.5195 21.7254 15.5195 32.3984C15.5195 43.6425 24.6661 52.7891 35.9102 52.7891C47.1542 52.7891 56.3008 43.6425 56.3008 32.3984C56.3008 21.7254 48.0593 12.9435 37.6057 12.0788ZM1.69922 13.707H15.5195C16.4587 13.707 17.2188 12.947 17.2188 12.0078C17.2188 11.0686 16.4587 10.3086 15.5195 10.3086H1.69922C0.760004 10.3086 0 11.0686 0 12.0078C0 12.947 0.760004 13.707 1.69922 13.707ZM12.1211 20.5039H1.69922C0.760004 20.5039 0 21.2639 0 22.2031C0 23.1423 0.760004 23.9023 1.69922 23.9023H12.1211C13.0603 23.9023 13.8203 23.1423 13.8203 22.2031C13.8203 21.2639 13.0603 20.5039 12.1211 20.5039ZM5.32422 30.6992H1.69922C0.760004 30.6992 0 31.4592 0 32.3984C0 33.3377 0.760004 34.0977 1.69922 34.0977H5.32422C6.26343 34.0977 7.02344 33.3377 7.02344 32.3984C7.02344 31.4592 6.26343 30.6992 5.32422 30.6992Z" fill="url(#paint0_linear)"/>
<path d="M35.9102 10.3086C23.7302 10.3086 13.8203 20.2184 13.8203 32.3984C13.8203 44.5784 23.7302 54.4883 35.9102 54.4883C48.0902 54.4883 58 44.5784 58 32.3984C58 20.2184 48.0902 10.3086 35.9102 10.3086ZM37.6094 51.0037V49.3906C37.6094 48.4514 36.8494 47.6914 35.9102 47.6914C34.9709 47.6914 34.2109 48.4514 34.2109 49.3906V51.0037C25.2606 50.1919 18.1167 43.049 17.3048 34.0977H18.918C19.8572 34.0977 20.6172 33.3377 20.6172 32.3984C20.6172 31.4592 19.8572 30.6992 18.918 30.6992H17.3048C18.1161 21.7551 25.2718 14.6911 34.2109 13.8695V15.4062C34.2109 16.3455 34.9709 17.1055 35.9102 17.1055C36.8494 17.1055 37.6094 16.3455 37.6094 15.4062V13.8695C46.5485 14.6911 53.7043 21.7551 54.5155 30.6992H52.9023C51.9631 30.6992 51.2031 31.4592 51.2031 32.3984C51.2031 33.3377 51.9631 34.0977 52.9023 34.0977H54.5155C53.7036 43.049 46.5597 50.1919 37.6094 51.0037ZM44.9041 21.0018L38.0942 27.8117C37.4296 27.4937 36.6949 27.3008 35.9102 27.3008C33.0992 27.3008 30.8125 29.5875 30.8125 32.3984C30.8125 35.2094 33.0992 37.4961 35.9102 37.4961C38.7211 37.4961 41.0078 35.2094 41.0078 32.3984C41.0078 31.6137 40.8149 30.879 40.4969 30.2145L47.3068 23.4046C47.9705 22.7409 47.9705 21.6655 47.3068 21.0018C46.6431 20.3381 45.5678 20.3379 44.9041 21.0018Z" fill="url(#paint1_linear)"/>
<defs>
<linearGradient id="paint0_linear" x1="28.1504" y1="52.7891" x2="28.1504" y2="3.51172" gradientUnits="userSpaceOnUse">
<stop stop-color="#00B59C"/>
<stop offset="1" stop-color="#9CFFAC"/>
</linearGradient>
<linearGradient id="paint1_linear" x1="35.9102" y1="54.4883" x2="35.9102" y2="10.3086" gradientUnits="userSpaceOnUse">
<stop stop-color="#C3FFE8"/>
<stop offset="0.9973" stop-color="#F0FFF4"/>
</linearGradient>
</defs>
</svg>
